<svg xmlns="http://www.w3.org/2000/svg" width="113.783" height="113.867" viewBox="0 0 113.783 113.867"><g transform="translate(-650.54 -341.35)"><path d="M735.966,348.973l-1.078-1.816-2.733.322-.625,2.019-1.429.167,2.716-8.284,4.562,7.426Zm-2.853-5.08-.732,2.483,2.025-.238Z" transform="translate(-32.179 -0.012)" fill="#fcfcfc"></path><path d="M748.512,346.769a2.042,2.042,0,0,1-.363,1.215,2.012,2.012,0,0,1-.965.7,3.988,3.988,0,0,1-1.406.208l-2.388-.036.119-7.5,2.263.036a2.967,2.967,0,0,1,1.727.494,1.616,1.616,0,0,1,.643,1.429,1.467,1.467,0,0,1-.328.953,1.955,1.955,0,0,1-.87.584,2.423,2.423,0,0,1,1.137.667A1.744,1.744,0,0,1,748.512,346.769Zm-3.847,1.054,1.048.018a1.733,1.733,0,0,0,1.066-.292,1.091,1.091,0,0,0,.435-.923,1.038,1.038,0,0,0-.4-.917,1.772,1.772,0,0,0-1.054-.316l-1.048-.018Zm1-5.39-.911-.012-.03,1.959.911.012a1.34,1.34,0,0,0,.864-.25.873.873,0,0,0,.345-.721.836.836,0,0,0-.322-.727A1.439,1.439,0,0,0,745.665,342.434Z" transform="translate(-37.555)" fill="#fcfcfc"></path><path d="M754.038,345.6a3.994,3.994,0,0,1,.542-1.483,3.732,3.732,0,0,1,1.006-1.084,3.826,3.826,0,0,1,1.346-.6,3.968,3.968,0,0,1,1.572-.036,4.051,4.051,0,0,1,1.483.536,3.836,3.836,0,0,1,1.1,1,3.621,3.621,0,0,1,.608,1.352,4.294,4.294,0,0,1-.5,3.061,3.7,3.7,0,0,1-1.006,1.1,3.755,3.755,0,0,1-1.358.613,4.246,4.246,0,0,1-3.073-.5,3.712,3.712,0,0,1-1.685-2.37A4.149,4.149,0,0,1,754.038,345.6Zm1.334.22a2.862,2.862,0,0,0,.1,1.411,2.444,2.444,0,0,0,.733,1.084,2.711,2.711,0,0,0,2.6.423,2.386,2.386,0,0,0,1.042-.792,3.042,3.042,0,0,0,.447-2.716,2.442,2.442,0,0,0-.732-1.084,2.705,2.705,0,0,0-2.6-.429,2.43,2.43,0,0,0-1.042.792A2.8,2.8,0,0,0,755.372,345.823Z" transform="translate(-41.837 -0.399)" fill="#fcfcfc"></path><path d="M770.158,344.68l1.2.393-1.548,4.74a1.635,1.635,0,0,0,.012,1.179,1.619,1.619,0,0,0,2.084.679,1.665,1.665,0,0,0,.7-.947l1.548-4.74,1.2.393-1.566,4.788a2.8,2.8,0,0,1-.774,1.245,2.385,2.385,0,0,1-1.2.572,2.993,2.993,0,0,1-1.447-.137,3.035,3.035,0,0,1-1.251-.744,2.361,2.361,0,0,1-.631-1.173,2.833,2.833,0,0,1,.107-1.459Z" transform="translate(-47.684 -1.347)" fill="#fcfcfc"></path><path d="M781.059,349.57l.494-1.06,4.74,2.215-.494,1.06-1.787-.834-2.686,5.741-1.167-.548,2.686-5.741Z" transform="translate(-52.427 -2.896)" fill="#fcfcfc"></path><path d="M795.525,356.56l1.03.738-2.9,4.05a1.624,1.624,0,0,0-.345,1.126,1.614,1.614,0,0,0,1.781,1.274,1.634,1.634,0,0,0,.947-.691l2.9-4.05,1.03.738-2.936,4.1a2.819,2.819,0,0,1-1.108.953,2.37,2.37,0,0,1-1.316.185,3.05,3.05,0,0,1-1.34-.566,2.979,2.979,0,0,1-.965-1.09,2.367,2.367,0,0,1-.25-1.3,2.8,2.8,0,0,1,.542-1.358Z" transform="translate(-57.233 -6.152)" fill="#fcfcfc"></path><path d="M802.407,368.967a3.74,3.74,0,0,0-.191,1.376,1.576,1.576,0,0,0,.524,1.048,1.231,1.231,0,0,0,.8.387.97.97,0,0,0,.721-.357.948.948,0,0,0,.286-.661,2.076,2.076,0,0,0-.149-.75q-.152-.393-.357-.8c-.089-.179-.179-.381-.274-.607a3.178,3.178,0,0,1-.2-.715,1.841,1.841,0,0,1,.048-.78,1.9,1.9,0,0,1,.476-.792,1.862,1.862,0,0,1,.935-.566,2.01,2.01,0,0,1,1.09.054,2.909,2.909,0,0,1,1.09.673,2.7,2.7,0,0,1,.679.947,2.6,2.6,0,0,1,.179.983,3.345,3.345,0,0,1-.155.941l-1.143-.232a2.619,2.619,0,0,0,.077-.983,1.384,1.384,0,0,0-.453-.864,1.042,1.042,0,0,0-.715-.334.855.855,0,0,0-.631.3.7.7,0,0,0-.2.566,2.376,2.376,0,0,0,.2.727c.113.262.244.542.387.828a4.872,4.872,0,0,1,.357.923,2.349,2.349,0,0,1,.048,1.018,2.012,2.012,0,0,1-.548,1.012,2.12,2.12,0,0,1-1.036.649,2.056,2.056,0,0,1-1.167-.036,3.032,3.032,0,0,1-1.137-.691,2.8,2.8,0,0,1-.7-1.012,3.065,3.065,0,0,1-.226-1.2,3.518,3.518,0,0,1,.244-1.227Z" transform="translate(-60.864 -9.846)" fill="#fcfcfc"></path><path d="M821.51,394.608l.917-.488,1.03,1.941-.917.488Z" transform="translate(-69.152 -21.344)" fill="#fcfcfc"></path><path d="M828.148,425.058l1.793-1.12-.387-2.728-2.031-.578-.2-1.423,8.343,2.525-7.319,4.735Zm5.014-2.972-2.5-.673.286,2.019Z" transform="translate(-71.502 -31.492)" fill="#fcfcfc"></path><path d="M831.185,437.409a2.082,2.082,0,0,1-1.227-.322,2,2,0,0,1-.727-.941,4.014,4.014,0,0,1-.256-1.4l-.036-2.388,7.5-.119.036,2.263a2.958,2.958,0,0,1-.441,1.745,1.612,1.612,0,0,1-1.411.685,1.492,1.492,0,0,1-.965-.3,1.963,1.963,0,0,1-.607-.846,2.361,2.361,0,0,1-.631,1.155A1.709,1.709,0,0,1,831.185,437.409Zm-1.179-3.805.018,1.048a1.7,1.7,0,0,0,.328,1.054,1.1,1.1,0,0,0,.941.4,1.043,1.043,0,0,0,.905-.435,1.772,1.772,0,0,0,.286-1.066l-.018-1.048Zm5.419.822-.012-.911-1.959.03.012.911a1.327,1.327,0,0,0,.274.852.952.952,0,0,0,1.447-.024A1.379,1.379,0,0,0,835.425,434.426Z" transform="translate(-72.157 -36.762)" fill="#fcfcfc"></path><path d="M832.313,442.979a4.006,4.006,0,0,1,1.495.506,3.826,3.826,0,0,1,1.108.983,3.676,3.676,0,0,1,.631,1.334,4.039,4.039,0,0,1,.072,1.566,4.105,4.105,0,0,1-.5,1.495,3.767,3.767,0,0,1-.977,1.12,3.605,3.605,0,0,1-1.334.643,4.3,4.3,0,0,1-3.067-.429,3.77,3.77,0,0,1-1.12-.977,3.68,3.68,0,0,1-.643-1.34,4.008,4.008,0,0,1-.078-1.584,4.07,4.07,0,0,1,.506-1.5,3.761,3.761,0,0,1,.989-1.108,3.845,3.845,0,0,1,1.346-.637A3.957,3.957,0,0,1,832.313,442.979Zm-.191,1.34a2.851,2.851,0,0,0-1.411.131,2.415,2.415,0,0,0-1.066.762,2.7,2.7,0,0,0-.369,2.608,2.434,2.434,0,0,0,.816,1.024,3.079,3.079,0,0,0,2.728.381,2.382,2.382,0,0,0,1.066-.762,2.564,2.564,0,0,0,.524-1.263,2.438,2.438,0,0,0-.977-2.37A2.736,2.736,0,0,0,832.122,444.319Z" transform="translate(-71.718 -41.087)" fill="#fcfcfc"></path><path d="M833.237,459.1l-.363,1.209-4.776-1.435a1.64,1.64,0,0,0-1.173.036,1.61,1.61,0,0,0-.631,2.1,1.657,1.657,0,0,0,.959.673l4.776,1.435-.363,1.209-4.824-1.453a2.8,2.8,0,0,1-1.263-.744,2.374,2.374,0,0,1-.6-1.185,3,3,0,0,1,.1-1.453,3.074,3.074,0,0,1,.715-1.269,2.333,2.333,0,0,1,1.155-.661,2.744,2.744,0,0,1,1.459.077Z" transform="translate(-70.535 -46.975)" fill="#fcfcfc"></path><path d="M828.687,470.144l1.072.47L827.65,475.4l-1.072-.47.792-1.8-5.8-2.549.518-1.179,5.8,2.549Z" transform="translate(-69.176 -51.792)" fill="#fcfcfc"></path><path d="M821.871,484.745l-.715,1.042-4.115-2.811a1.623,1.623,0,0,0-1.132-.316,1.389,1.389,0,0,0-.971.661,1.355,1.355,0,0,0-.262,1.149,1.63,1.63,0,0,0,.715.935l4.115,2.811-.715,1.042-4.163-2.841a2.766,2.766,0,0,1-.977-1.09,2.376,2.376,0,0,1-.214-1.316,2.962,2.962,0,0,1,.536-1.352,3.065,3.065,0,0,1,1.066-.995,2.357,2.357,0,0,1,1.3-.28,2.741,2.741,0,0,1,1.37.512Z" transform="translate(-65.88 -56.638)" fill="#fcfcfc"></path><path d="M810.376,491.9a3.687,3.687,0,0,0-1.382-.161,1.594,1.594,0,0,0-1.036.548,1.225,1.225,0,0,0-.369.816.973.973,0,0,0,.369.709.984.984,0,0,0,.667.274,2.059,2.059,0,0,0,.744-.167,8.613,8.613,0,0,0,.792-.375c.179-.089.375-.185.6-.286a3.03,3.03,0,0,1,.715-.22,1.859,1.859,0,0,1,.786.03,1.922,1.922,0,0,1,.8.459,1.841,1.841,0,0,1,.584.923,2,2,0,0,1-.03,1.09,2.931,2.931,0,0,1-.643,1.1,2.478,2.478,0,0,1-1.906.9,3.329,3.329,0,0,1-.941-.137l.208-1.149a2.612,2.612,0,0,0,.983.06,1.334,1.334,0,0,0,.852-.476,1.057,1.057,0,0,0,.322-.721.866.866,0,0,0-.316-.625.735.735,0,0,0-.572-.185,2.082,2.082,0,0,0-.721.214c-.262.119-.536.256-.822.4a4.356,4.356,0,0,1-.917.375,2.449,2.449,0,0,1-1.018.071,1.969,1.969,0,0,1-1.024-.524,2.157,2.157,0,0,1-.673-1.024,2.1,2.1,0,0,1,.012-1.167,2.968,2.968,0,0,1,.667-1.149,2.845,2.845,0,0,1,1-.727,3.065,3.065,0,0,1,1.2-.25,3.361,3.361,0,0,1,1.233.214Z" transform="translate(-63.02 -60.338)" fill="#fcfcfc"></path><path d="M788.488,511.52l.506.905-1.918,1.072-.506-.905Z" transform="translate(-55.02 -68.828)" fill="#fcfcfc"></path><path d="M754.9,518.859l1.161,1.763,2.716-.447.536-2.043,1.417-.232-2.334,8.4-4.9-7.212Zm3.085,4.943.619-2.513-2.007.334Z" transform="translate(-41.64 -71.409)" fill="#fcfcfc"></path><path d="M744,522.161a2.067,2.067,0,0,1,.31-1.233,2.01,2.01,0,0,1,.935-.738,3.877,3.877,0,0,1,1.4-.268l2.388-.071.214,7.5-2.263.066a2.989,2.989,0,0,1-1.751-.417,1.609,1.609,0,0,1-.7-1.4,1.48,1.48,0,0,1,.286-.971,1.966,1.966,0,0,1,.84-.619,2.424,2.424,0,0,1-1.167-.613A1.667,1.667,0,0,1,744,522.161Zm3.794-1.227-1.048.03a1.742,1.742,0,0,0-1.054.339,1.087,1.087,0,0,0-.393.947,1.048,1.048,0,0,0,.447.9,1.8,1.8,0,0,0,1.072.268l1.048-.03Zm-.756,5.431.911-.024-.06-1.959-.911.024a1.38,1.38,0,0,0-.852.286.958.958,0,0,0,.042,1.447A1.426,1.426,0,0,0,747.036,526.365Z" transform="translate(-37.801 -72.197)" fill="#fcfcfc"></path><path d="M736.75,523.48a4.062,4.062,0,0,1-.47,1.507,3.7,3.7,0,0,1-2.275,1.793,4.017,4.017,0,0,1-1.566.107,4.166,4.166,0,0,1-1.507-.465,3.829,3.829,0,0,1-1.143-.947,3.57,3.57,0,0,1-.673-1.322,4.055,4.055,0,0,1-.107-1.572,4.167,4.167,0,0,1,.465-1.507,3.848,3.848,0,0,1,.953-1.143,3.7,3.7,0,0,1,1.328-.679,4.28,4.28,0,0,1,3.1.357,3.766,3.766,0,0,1,1.131.965,3.721,3.721,0,0,1,.667,1.328A4.214,4.214,0,0,1,736.75,523.48Zm-1.34-.155a2.811,2.811,0,0,0-.167-1.405,2.458,2.458,0,0,0-.786-1.048,2.5,2.5,0,0,0-1.263-.494,2.546,2.546,0,0,0-1.352.185,2.445,2.445,0,0,0-1.006.84,2.873,2.873,0,0,0-.482,1.328,2.81,2.81,0,0,0,.167,1.405,2.423,2.423,0,0,0,.786,1.048,2.521,2.521,0,0,0,1.274.494,2.438,2.438,0,0,0,2.352-1.03A2.862,2.862,0,0,0,735.41,523.325Z" transform="translate(-31.725 -71.897)" fill="#fcfcfc"></path><path d="M721.376,524.776l-1.221-.333,1.322-4.806a1.632,1.632,0,0,0-.066-1.173,1.622,1.622,0,0,0-2.114-.584,1.652,1.652,0,0,0-.655.977l-1.322,4.806-1.221-.333,1.34-4.859a2.771,2.771,0,0,1,.715-1.274,2.328,2.328,0,0,1,1.173-.625,3.305,3.305,0,0,1,2.74.75,2.367,2.367,0,0,1,.685,1.137,2.718,2.718,0,0,1-.042,1.459Z" transform="translate(-26.517 -70.847)" fill="#fcfcfc"></path><path d="M710.772,520.439l-.447,1.078-4.836-2,.447-1.078,1.822.75,2.418-5.854,1.191.488-2.418,5.86Z" transform="translate(-22.225 -69.564)" fill="#fcfcfc"></path><path d="M694.736,513.983l-1.06-.691,2.716-4.181a1.622,1.622,0,0,0,.292-1.138,1.355,1.355,0,0,0-.685-.953,1.373,1.373,0,0,0-1.155-.238,1.662,1.662,0,0,0-.917.733L691.21,511.7l-1.06-.691,2.745-4.228a2.7,2.7,0,0,1,1.066-1,2.363,2.363,0,0,1,1.31-.244,3,3,0,0,1,1.364.506,3.084,3.084,0,0,1,1.018,1.042,2.3,2.3,0,0,1,.31,1.292,2.765,2.765,0,0,1-.482,1.382Z" transform="translate(-16.021 -66.402)" fill="#fcfcfc"></path><path d="M687.913,502.687a3.607,3.607,0,0,0,.125-1.382,1.587,1.587,0,0,0-.572-1.024,1.182,1.182,0,0,0-.822-.345.975.975,0,0,0-.7.387.96.96,0,0,0-.256.673,2.133,2.133,0,0,0,.185.744q.17.384.393.786c.1.173.2.369.3.59a3.3,3.3,0,0,1,.238.709,1.845,1.845,0,0,1-.012.786,1.906,1.906,0,0,1-.441.816,1.873,1.873,0,0,1-.911.607,1.994,1.994,0,0,1-1.09-.006,2.886,2.886,0,0,1-1.12-.619,2.542,2.542,0,0,1-.721-.917,2.617,2.617,0,0,1-.226-.971,3.38,3.38,0,0,1,.113-.947l1.155.179a2.609,2.609,0,0,0-.036.983,1.345,1.345,0,0,0,.494.84,1.052,1.052,0,0,0,.727.3.836.836,0,0,0,.613-.328.727.727,0,0,0,.173-.572,2.192,2.192,0,0,0-.226-.715c-.125-.256-.268-.53-.423-.81a4.624,4.624,0,0,1-.4-.905,2.347,2.347,0,0,1-.1-1.018,1.971,1.971,0,0,1,.5-1.036,2.123,2.123,0,0,1,1.006-.7,2.1,2.1,0,0,1,1.167-.018,3.064,3.064,0,0,1,1.167.637,2.851,2.851,0,0,1,.75.983,3.035,3.035,0,0,1,.28,1.191,3.411,3.411,0,0,1-.191,1.239Z" transform="translate(-12.837 -63.645)" fill="#fcfcfc"></path><path d="M671.143,481.2l-.893.53-1.12-1.894.893-.53Z" transform="translate(-7.519 -55.8)" fill="#fcfcfc"></path><path d="M658.745,447.8l-1.739,1.2.512,2.71,2.055.488.268,1.411-8.451-2.138,7.1-5.068Zm-4.871,3.2,2.525.56-.375-2Z" transform="translate(-0.344 -42.493)" fill="#fcfcfc"></path><path d="M655.727,437.007a2.05,2.05,0,0,1,1.239.28,2.006,2.006,0,0,1,.762.917,4.065,4.065,0,0,1,.3,1.388l.125,2.388-7.492.387-.119-2.257a2.976,2.976,0,0,1,.375-1.757,1.624,1.624,0,0,1,1.382-.738,1.494,1.494,0,0,1,.977.262,1.888,1.888,0,0,1,.637.828,2.36,2.36,0,0,1,.59-1.179A1.729,1.729,0,0,1,655.727,437.007Zm-4.133,3.133.048.911,1.959-.1-.048-.911a1.327,1.327,0,0,0-.31-.846.857.857,0,0,0-.738-.292.842.842,0,0,0-.7.369A1.365,1.365,0,0,0,651.594,440.14Zm5.443.631-.054-1.048a1.742,1.742,0,0,0-.363-1.042,1.082,1.082,0,0,0-.953-.369,1.06,1.06,0,0,0-.887.465,1.771,1.771,0,0,0-.244,1.078l.054,1.048Z" transform="translate(0 -38.689)" fill="#fcfcfc"></path><path d="M654.091,429.839a4.057,4.057,0,0,1-1.513-.435,3.66,3.66,0,0,1-1.149-.929,3.812,3.812,0,0,1-.691-1.3,4,4,0,0,1-.143-1.566,4.056,4.056,0,0,1,.435-1.513,3.758,3.758,0,0,1,.923-1.161,3.548,3.548,0,0,1,1.3-.7,4.267,4.267,0,0,1,3.079.292,3.776,3.776,0,0,1,1.161.929,3.728,3.728,0,0,1,.709,1.31,4.27,4.27,0,0,1-.286,3.1,3.73,3.73,0,0,1-2.251,1.846A4.209,4.209,0,0,1,654.091,429.839Zm.125-1.346a2.847,2.847,0,0,0,1.4-.2,2.423,2.423,0,0,0,1.03-.81,2.7,2.7,0,0,0,.244-2.626,2.363,2.363,0,0,0-.863-.983,3.066,3.066,0,0,0-2.739-.256,2.423,2.423,0,0,0-1.03.81,2.7,2.7,0,0,0-.244,2.626,2.33,2.33,0,0,0,.863.983A2.827,2.827,0,0,0,654.216,428.493Z" transform="translate(-0.014 -32.646)" fill="#fcfcfc"></path><path d="M652.16,414.5l.31-1.227,4.836,1.215a1.624,1.624,0,0,0,1.173-.089,1.386,1.386,0,0,0,.685-.959,1.35,1.35,0,0,0-.149-1.167,1.691,1.691,0,0,0-.989-.631l-4.836-1.215.31-1.227,4.889,1.227a2.725,2.725,0,0,1,1.292.685,2.361,2.361,0,0,1,.655,1.161,3.019,3.019,0,0,1-.036,1.453,3.079,3.079,0,0,1-.655,1.3,2.406,2.406,0,0,1-1.126.715,2.777,2.777,0,0,1-1.465-.006Z" transform="translate(-0.655 -27.443)" fill="#fcfcfc"></path><path d="M656.28,403.816l-1.09-.423,1.882-4.883,1.09.423-.709,1.84,5.914,2.281-.465,1.2-5.914-2.281Z" transform="translate(-1.881 -23.119)" fill="#fcfcfc"></path><path d="M662.18,387.6l.667-1.078,4.24,2.614a1.651,1.651,0,0,0,1.143.268,1.4,1.4,0,0,0,.941-.7,1.372,1.372,0,0,0,.214-1.161,1.613,1.613,0,0,0-.756-.9l-4.24-2.62.667-1.078,4.288,2.644a2.76,2.76,0,0,1,1.024,1.042,2.352,2.352,0,0,1,.274,1.3,3.041,3.041,0,0,1-.47,1.376,3,3,0,0,1-1.018,1.042,2.343,2.343,0,0,1-1.286.339,2.816,2.816,0,0,1-1.394-.447Z" transform="translate(-4.708 -16.822)" fill="#fcfcfc"></path><path d="M674.023,380.508a3.686,3.686,0,0,0,1.388.1,1.553,1.553,0,0,0,1.006-.6,1.2,1.2,0,0,0,.328-.828,1.117,1.117,0,0,0-1.084-.935,2,2,0,0,0-.739.2c-.256.119-.512.256-.774.411-.173.1-.369.2-.584.31a3.389,3.389,0,0,1-.7.25,1.838,1.838,0,0,1-.786.006,1.925,1.925,0,0,1-.828-.423,1.837,1.837,0,0,1-.625-.893,1.987,1.987,0,0,1-.018-1.09,2.9,2.9,0,0,1,.6-1.132,2.644,2.644,0,0,1,.9-.744,2.51,2.51,0,0,1,.965-.244,3.6,3.6,0,0,1,.947.089l-.155,1.161a2.6,2.6,0,0,0-.983-.012,1.374,1.374,0,0,0-.828.512,1.049,1.049,0,0,0-.286.733.862.862,0,0,0,.339.607.714.714,0,0,0,.578.155,2.234,2.234,0,0,0,.709-.244c.256-.131.524-.28.8-.441a4.614,4.614,0,0,1,.9-.417,2.421,2.421,0,0,1,1.012-.119,2.022,2.022,0,0,1,1.048.476,2.134,2.134,0,0,1,.721.995,2.1,2.1,0,0,1,.042,1.167,2.959,2.959,0,0,1-.613,1.179,2.733,2.733,0,0,1-.965.768,3.149,3.149,0,0,1-1.185.31,3.43,3.43,0,0,1-1.245-.161Z" transform="translate(-8.088 -13.568)" fill="#fcfcfc"></path><path d="M698.458,363.183l-.548-.881,1.864-1.161.548.881Z" transform="translate(-19.16 -8.004)" fill="#fcfcfc"></path></g></svg>