<svg xmlns="http://www.w3.org/2000/svg" width="140" height="140" viewBox="0 0 140 140"><g transform="translate(-755 -1547)"><circle cx="70" cy="70" r="70" transform="translate(755 1547)" fill="#3da1fe"></circle><g transform="translate(693 1554)"><path d="M139.071,73.65a.75.75,0,0,1-.53-.22,10.626,10.626,0,0,0-13.081,0,.75.75,0,0,1-1.061,0L121.57,70.6a.75.75,0,0,1,0-1.061A9.393,9.393,0,0,0,123.821,63a9.393,9.393,0,0,0-2.251-6.541.75.75,0,0,1,0-1.061L124.4,52.57a.75.75,0,0,1,.53-.22h0a.75.75,0,0,1,.53.22,10.626,10.626,0,0,0,13.081,0,.75.75,0,0,1,1.061,0l2.828,2.829a.75.75,0,0,1,0,1.061A9.4,9.4,0,0,0,140.178,63a9.4,9.4,0,0,0,2.251,6.541.75.75,0,0,1,0,1.061L139.6,73.43A.75.75,0,0,1,139.071,73.65Zm-15.938-3.607,1.824,1.824a9.153,9.153,0,0,1,2.869-1.531,13.588,13.588,0,0,1,8.349,0,9.152,9.152,0,0,1,2.869,1.531l1.823-1.824a9.153,9.153,0,0,1-1.531-2.869,13.592,13.592,0,0,1,0-8.348,9.153,9.153,0,0,1,1.531-2.869l-1.823-1.824a9.152,9.152,0,0,1-2.869,1.531,13.588,13.588,0,0,1-8.349,0,9.153,9.153,0,0,1-2.869-1.531l-1.824,1.824a9.153,9.153,0,0,1,1.531,2.869,13.588,13.588,0,0,1,0,8.349A9.153,9.153,0,0,1,123.133,70.043Z" fill="#fff"></path><path d="M2-.75A2.75,2.75,0,1,1-.75,2,2.753,2.753,0,0,1,2-.75Zm0,4A1.25,1.25,0,1,0,.75,2,1.251,1.251,0,0,0,2,3.25Z" transform="translate(130 61)" fill="#fff"></path><path d="M144.728,54.022a3.751,3.751,0,1,1,2.651-1.1A3.724,3.724,0,0,1,144.728,54.022Zm0-6a2.251,2.251,0,1,0,1.591.66A2.233,2.233,0,0,0,144.728,48.022Z" fill="#fff"></path><path d="M0,2.871a.748.748,0,0,1-.53-.22.75.75,0,0,1,0-1.061L1.591-.53a.75.75,0,0,1,1.061,0,.75.75,0,0,1,0,1.061L.53,2.652A.748.748,0,0,1,0,2.871Z" transform="translate(140.485 52.393)" fill="#fff"></path><path d="M144.852,60.9a10.8,10.8,0,0,1-2.022-.191.75.75,0,0,1,.281-1.473,9.25,9.25,0,1,0-7.345-7.345.75.75,0,1,1-1.473.281,10.75,10.75,0,1,1,10.56,8.729Z" fill="#fff"></path><path d="M137.728,51.022a.75.75,0,0,1-.75-.75,7.749,7.749,0,0,1,7.75-7.75.75.75,0,0,1,0,1.5,6.249,6.249,0,0,0-6.25,6.25A.75.75,0,0,1,137.728,51.022Z" fill="#fff"></path><path d="M144.728,58.022a.75.75,0,0,1,0-1.5,6.249,6.249,0,0,0,6.25-6.25.75.75,0,0,1,1.5,0,7.749,7.749,0,0,1-7.75,7.75Z" fill="#fff"></path><path d="M119.272,71.978a3.751,3.751,0,1,1-2.651,1.1A3.724,3.724,0,0,1,119.272,71.978Zm0,6a2.251,2.251,0,1,0-1.591-.66A2.233,2.233,0,0,0,119.272,77.978Z" fill="#fff"></path><path d="M0,2.871a.748.748,0,0,1-.53-.22.75.75,0,0,1,0-1.061L1.591-.53a.75.75,0,0,1,1.061,0,.75.75,0,0,1,0,1.061L.53,2.652A.748.748,0,0,1,0,2.871Z" transform="translate(121.393 71.485)" fill="#fff"></path><path d="M119.15,86.595a10.747,10.747,0,1,1,2.02-21.3.75.75,0,0,1-.281,1.473,9.25,9.25,0,1,0,7.345,7.345.75.75,0,1,1,1.473-.281A10.742,10.742,0,0,1,119.15,86.595Z" fill="#fff"></path><path d="M119.272,83.478a.75.75,0,0,1,0-1.5,6.249,6.249,0,0,0,6.25-6.25.75.75,0,0,1,1.5,0,7.749,7.749,0,0,1-7.75,7.75Z" fill="#fff"></path><path d="M112.272,76.478a.75.75,0,0,1-.75-.75,7.749,7.749,0,0,1,7.75-7.75.75.75,0,0,1,0,1.5,6.249,6.249,0,0,0-6.25,6.25A.75.75,0,0,1,112.272,76.478Z" fill="#fff"></path><path d="M144.728,79.478a3.751,3.751,0,1,1,2.651-1.1A3.724,3.724,0,0,1,144.728,79.478Zm0-6a2.251,2.251,0,1,0,1.591.66A2.233,2.233,0,0,0,144.728,73.478Z" fill="#fff"></path><path d="M2.121,2.871a.748.748,0,0,1-.53-.22L-.53.53A.75.75,0,0,1-.53-.53.75.75,0,0,1,.53-.53L2.652,1.591a.75.75,0,0,1-.53,1.28Z" transform="translate(140.485 71.485)" fill="#fff"></path><path d="M144.85,86.595A10.742,10.742,0,0,1,134.292,73.83a.75.75,0,1,1,1.473.281,9.25,9.25,0,1,0,7.345-7.345.75.75,0,1,1-.281-1.473,10.748,10.748,0,1,1,2.02,21.3Z" fill="#fff"></path><path d="M151.728,76.478a.75.75,0,0,1-.75-.75,6.249,6.249,0,0,0-6.25-6.25.75.75,0,0,1,0-1.5,7.749,7.749,0,0,1,7.75,7.75A.75.75,0,0,1,151.728,76.478Z" fill="#fff"></path><path d="M144.728,83.478a7.749,7.749,0,0,1-7.75-7.75.75.75,0,0,1,1.5,0,6.249,6.249,0,0,0,6.25,6.25.75.75,0,0,1,0,1.5Z" fill="#fff"></path><path d="M119.272,46.522a3.751,3.751,0,1,1-2.651,1.1A3.724,3.724,0,0,1,119.272,46.522Zm0,6a2.251,2.251,0,1,0-1.591-.66A2.233,2.233,0,0,0,119.272,52.522Z" fill="#fff"></path><path d="M2.121,2.871a.748.748,0,0,1-.53-.22L-.53.53A.75.75,0,0,1-.53-.53.75.75,0,0,1,.53-.53L2.652,1.591a.75.75,0,0,1-.53,1.28Z" transform="translate(121.393 52.393)" fill="#fff"></path><path d="M119.148,60.9a10.75,10.75,0,1,1,10.56-8.729.75.75,0,1,1-1.473-.281,9.25,9.25,0,1,0-7.345,7.345.75.75,0,0,1,.281,1.473A10.8,10.8,0,0,1,119.148,60.9Z" fill="#fff"></path><path d="M119.272,58.022a7.749,7.749,0,0,1-7.75-7.75.75.75,0,0,1,1.5,0,6.249,6.249,0,0,0,6.25,6.25.75.75,0,0,1,0,1.5Z" fill="#fff"></path><path d="M126.272,51.022a.75.75,0,0,1-.75-.75,6.249,6.249,0,0,0-6.25-6.25.75.75,0,0,1,0-1.5,7.749,7.749,0,0,1,7.75,7.75A.75.75,0,0,1,126.272,51.022Z" fill="#fff"></path></g></g></svg>